<svg width="157" height="51" viewBox="0 0 157 51" fill="none" xmlns="http://www.w3.org/2000/svg">
<g clip-path="url(#clip0_1_434)">
<path d="M44.6403 33.2407C44.055 33.2404 43.4715 33.1773 42.8994 33.0525L39.7878 32.361C39.619 32.3283 39.4584 32.2617 39.3155 32.1653C39.1726 32.0689 39.0503 31.9446 38.9558 31.7997C38.8613 31.6548 38.7966 31.4923 38.7653 31.3218C38.7341 31.1512 38.7371 30.9761 38.7741 30.8067C38.811 30.6373 38.8813 30.4772 38.9806 30.3356C39.08 30.1941 39.2064 30.0741 39.3525 29.9826C39.4986 29.8912 39.6613 29.8302 39.8312 29.8033C40.001 29.7764 40.1745 29.784 40.3413 29.8258L43.44 30.514C44.7017 30.7889 46.0185 30.6208 47.1726 30.0376C48.3266 29.4543 49.2484 28.4909 49.7855 27.3068L58.7406 7.3853L38.372 28.193C38.2544 28.3192 38.113 28.4205 37.956 28.4907C37.799 28.561 37.6297 28.5988 37.458 28.602C37.2864 28.6052 37.1158 28.5738 36.9563 28.5095C36.7969 28.4452 36.6518 28.3493 36.5296 28.2276C36.4074 28.1059 36.3106 27.9607 36.2449 27.8007C36.1792 27.6406 36.1459 27.4689 36.147 27.2957C36.1481 27.1225 36.1835 26.9512 36.2512 26.792C36.3189 26.6328 36.4174 26.4889 36.5411 26.3687L61.9616 0.399621C62.1739 0.182866 62.4549 0.0483082 62.7556 0.0194938C63.0562 -0.00932062 63.3574 0.0694433 63.6063 0.242003C63.8552 0.414563 64.036 0.669928 64.1171 0.963413C64.1982 1.2569 64.1744 1.56981 64.0499 1.8474L52.1441 28.3813C51.4844 29.8299 50.4269 31.0575 49.0971 31.9187C47.7672 32.7799 46.2206 33.2387 44.6403 33.2407Z" fill="#EC3542"/>
<path d="M42.4552 23.4891C42.3963 23.4938 42.3372 23.4938 42.2783 23.4891C42.1103 23.4648 41.9487 23.4073 41.8028 23.3199C41.657 23.2324 41.5297 23.1167 41.4283 22.9795C41.3269 22.8422 41.2535 22.6861 41.2121 22.52C41.1708 22.354 41.1624 22.1814 41.1874 22.0121L43.1374 7.7291L35.5853 19.0159C35.4993 19.1748 35.3813 19.3138 35.2389 19.424C35.0965 19.5341 34.9328 19.6131 34.7584 19.6557C34.584 19.6982 34.4027 19.7036 34.2261 19.6713C34.0495 19.639 33.8816 19.5699 33.7331 19.4682C33.5845 19.3666 33.4587 19.2348 33.3637 19.0812C33.2687 18.9276 33.2065 18.7557 33.1813 18.5765C33.156 18.3972 33.1682 18.2147 33.217 18.0404C33.2658 17.8662 33.3502 17.7042 33.4647 17.5649L44.0834 1.64909C44.2459 1.40583 44.4852 1.22523 44.7624 1.13671C45.0396 1.04819 45.3384 1.05696 45.61 1.16161C45.8817 1.26625 46.1102 1.46059 46.2583 1.71298C46.4065 1.96536 46.4656 2.26092 46.426 2.55151L43.723 22.3529C43.6841 22.6651 43.534 22.9524 43.3008 23.1614C43.0676 23.3704 42.7671 23.4868 42.4552 23.4891Z" fill="#EC3542"/>
<path d="M38.2659 23.4891C38.0935 23.4889 37.923 23.4537 37.7643 23.3857C37.6057 23.3176 37.4622 23.2181 37.3424 23.0931L33.7867 19.3958C32.8266 18.4045 31.5415 17.8001 30.1716 17.6955C28.8017 17.591 27.441 17.9935 26.344 18.8277C24.9164 19.9087 23.1801 20.4941 21.3951 20.4962H1.28711C0.94575 20.4962 0.618368 20.3594 0.376987 20.1159C0.135606 19.8724 0 19.5421 0 19.1978C0 18.8534 0.135606 18.5231 0.376987 18.2796C0.618368 18.0361 0.94575 17.8993 1.28711 17.8993H21.3951C22.6207 17.8979 23.8129 17.4959 24.793 16.7534C26.3932 15.5394 28.3773 14.9557 30.3736 15.1117C32.3698 15.2677 34.2411 16.1526 35.637 17.6007L39.1765 21.2948C39.3531 21.4778 39.4723 21.7093 39.5191 21.9603C39.5659 22.2113 39.5383 22.4707 39.4398 22.706C39.3412 22.9412 39.176 23.1419 38.9649 23.283C38.7539 23.424 38.5062 23.4991 38.253 23.4989L38.2659 23.4891Z" fill="#EC3542"/>
<path d="M64.7127 50.9996C64.5926 51.005 64.4723 50.993 64.3556 50.9639L43.1182 45.0169C35.9106 43.0124 29.7715 38.2331 26.0221 31.7078L23.583 27.4586C23.4856 27.311 23.4191 27.1448 23.3878 26.9702C23.3565 26.7957 23.3609 26.6165 23.4009 26.4438C23.4408 26.2711 23.5154 26.1084 23.6201 25.9659C23.7248 25.8234 23.8573 25.704 24.0095 25.6151C24.1616 25.5263 24.3302 25.4698 24.5049 25.4492C24.6795 25.4286 24.8565 25.4443 25.0249 25.4954C25.1933 25.5465 25.3495 25.6318 25.4839 25.7461C25.6183 25.8605 25.7281 26.0014 25.8065 26.1602L28.2585 30.4029C31.6735 36.3383 37.2611 40.6848 43.8197 42.5077L60.4942 47.1691L49.9045 36.1615C49.7827 36.04 49.6862 35.8952 49.6205 35.7356C49.5549 35.5761 49.5215 35.4049 49.5223 35.2321C49.5231 35.0593 49.5581 34.8884 49.6252 34.7294C49.6923 34.5705 49.7902 34.4266 49.9131 34.3063C50.036 34.186 50.1815 34.0916 50.341 34.0287C50.5005 33.9658 50.6709 33.9357 50.8421 33.9401C51.0133 33.9445 51.1819 33.9833 51.3381 34.0543C51.4943 34.1252 51.6348 34.2269 51.7515 34.3534L65.6427 48.7954C65.8193 48.9785 65.9384 49.21 65.9853 49.461C66.0321 49.712 66.0045 49.9714 65.9059 50.2066C65.8073 50.4419 65.6422 50.6426 65.4311 50.7837C65.22 50.9247 64.9724 50.9998 64.7192 50.9996H64.7127Z" fill="#EC3542"/>
</g>
<path d="M75.56 21.3L75.38 17.56L82.08 10.5H85.68L79.64 17L77.84 18.92L75.56 21.3ZM72.66 24.5V10.5H75.88V24.5H72.66ZM82.24 24.5L77.26 18.4L79.38 16.1L86.02 24.5H82.24ZM94.6103 24.5V22.4L94.4103 21.94V18.18C94.4103 17.5133 94.2036 16.9933 93.7903 16.62C93.3903 16.2467 92.7703 16.06 91.9303 16.06C91.357 16.06 90.7903 16.1533 90.2303 16.34C89.6836 16.5133 89.217 16.7533 88.8303 17.06L87.7103 14.88C88.297 14.4667 89.0036 14.1467 89.8303 13.92C90.657 13.6933 91.497 13.58 92.3503 13.58C93.9903 13.58 95.2636 13.9667 96.1703 14.74C97.077 15.5133 97.5303 16.72 97.5303 18.36V24.5H94.6103ZM91.3303 24.66C90.4903 24.66 89.7703 24.52 89.1703 24.24C88.5703 23.9467 88.1103 23.5533 87.7903 23.06C87.4703 22.5667 87.3103 22.0133 87.3103 21.4C87.3103 20.76 87.4636 20.2 87.7703 19.72C88.0903 19.24 88.5903 18.8667 89.2703 18.6C89.9503 18.32 90.837 18.18 91.9303 18.18H94.7903V20H92.2703C91.537 20 91.0303 20.12 90.7503 20.36C90.4836 20.6 90.3503 20.9 90.3503 21.26C90.3503 21.66 90.5036 21.98 90.8103 22.22C91.1303 22.4467 91.5636 22.56 92.1103 22.56C92.6303 22.56 93.097 22.44 93.5103 22.2C93.9236 21.9467 94.2236 21.58 94.4103 21.1L94.8903 22.54C94.6636 23.2333 94.2503 23.76 93.6503 24.12C93.0503 24.48 92.277 24.66 91.3303 24.66ZM101.354 24.5V9.66H104.474V24.5H101.354ZM108.37 24.5V13.74H111.49V24.5H108.37ZM109.93 12.24C109.356 12.24 108.89 12.0733 108.53 11.74C108.17 11.4067 107.99 10.9933 107.99 10.5C107.99 10.0067 108.17 9.59333 108.53 9.26C108.89 8.92667 109.356 8.76 109.93 8.76C110.503 8.76 110.97 8.92 111.33 9.24C111.69 9.54667 111.87 9.94667 111.87 10.44C111.87 10.96 111.69 11.3933 111.33 11.74C110.983 12.0733 110.516 12.24 109.93 12.24ZM121.745 24.66C120.839 24.66 120.045 24.46 119.365 24.06C118.685 23.66 118.152 23.0533 117.765 22.24C117.392 21.4133 117.205 20.3733 117.205 19.12C117.205 17.8533 117.385 16.8133 117.745 16C118.105 15.1867 118.625 14.58 119.305 14.18C119.985 13.78 120.799 13.58 121.745 13.58C122.759 13.58 123.665 13.8133 124.465 14.28C125.279 14.7333 125.919 15.3733 126.385 16.2C126.865 17.0267 127.105 18 127.105 19.12C127.105 20.2533 126.865 21.2333 126.385 22.06C125.919 22.8867 125.279 23.5267 124.465 23.98C123.665 24.4333 122.759 24.66 121.745 24.66ZM115.385 28.38V13.74H118.365V15.94L118.305 19.14L118.505 22.32V28.38H115.385ZM121.205 22.1C121.725 22.1 122.185 21.98 122.585 21.74C122.999 21.5 123.325 21.16 123.565 20.72C123.819 20.2667 123.945 19.7333 123.945 19.12C123.945 18.4933 123.819 17.96 123.565 17.52C123.325 17.08 122.999 16.74 122.585 16.5C122.185 16.26 121.725 16.14 121.205 16.14C120.685 16.14 120.219 16.26 119.805 16.5C119.392 16.74 119.065 17.08 118.825 17.52C118.585 17.96 118.465 18.4933 118.465 19.12C118.465 19.7333 118.585 20.2667 118.825 20.72C119.065 21.16 119.392 21.5 119.805 21.74C120.219 21.98 120.685 22.1 121.205 22.1ZM134.594 24.66C133.327 24.66 132.341 24.34 131.634 23.7C130.927 23.0467 130.574 22.08 130.574 20.8V11.36H133.694V20.76C133.694 21.2133 133.814 21.5667 134.054 21.82C134.294 22.06 134.621 22.18 135.034 22.18C135.527 22.18 135.947 22.0467 136.294 21.78L137.134 23.98C136.814 24.2067 136.427 24.38 135.974 24.5C135.534 24.6067 135.074 24.66 134.594 24.66ZM128.914 16.38V13.98H136.374V16.38H128.914ZM146.485 24.5V22.4L146.285 21.94V18.18C146.285 17.5133 146.079 16.9933 145.665 16.62C145.265 16.2467 144.645 16.06 143.805 16.06C143.232 16.06 142.665 16.1533 142.105 16.34C141.559 16.5133 141.092 16.7533 140.705 17.06L139.585 14.88C140.172 14.4667 140.879 14.1467 141.705 13.92C142.532 13.6933 143.372 13.58 144.225 13.58C145.865 13.58 147.139 13.9667 148.045 14.74C148.952 15.5133 149.405 16.72 149.405 18.36V24.5H146.485ZM143.205 24.66C142.365 24.66 141.645 24.52 141.045 24.24C140.445 23.9467 139.985 23.5533 139.665 23.06C139.345 22.5667 139.185 22.0133 139.185 21.4C139.185 20.76 139.339 20.2 139.645 19.72C139.965 19.24 140.465 18.8667 141.145 18.6C141.825 18.32 142.712 18.18 143.805 18.18H146.665V20H144.145C143.412 20 142.905 20.12 142.625 20.36C142.359 20.6 142.225 20.9 142.225 21.26C142.225 21.66 142.379 21.98 142.685 22.22C143.005 22.4467 143.439 22.56 143.985 22.56C144.505 22.56 144.972 22.44 145.385 22.2C145.799 21.9467 146.099 21.58 146.285 21.1L146.765 22.54C146.539 23.2333 146.125 23.76 145.525 24.12C144.925 24.48 144.152 24.66 143.205 24.66Z" fill="white"/>
<path d="M70.984 41.5L76.056 30.3H77.64L82.728 41.5H81.048L76.52 31.196H77.16L72.632 41.5H70.984ZM73.144 38.7L73.576 37.42H79.88L80.344 38.7H73.144ZM87.5865 41.596C86.8612 41.596 86.2212 41.4627 85.6665 41.196C85.1225 40.9293 84.6958 40.524 84.3865 39.98C84.0878 39.4253 83.9385 38.732 83.9385 37.9V33.02H85.4745V37.724C85.4745 38.556 85.6718 39.18 86.0665 39.596C86.4718 40.012 87.0372 40.22 87.7625 40.22C88.2958 40.22 88.7598 40.1133 89.1545 39.9C89.5492 39.676 89.8532 39.356 90.0665 38.94C90.2798 38.5133 90.3865 38.0013 90.3865 37.404V33.02H91.9225V41.5H90.4665V39.212L90.7065 39.82C90.4292 40.3853 90.0132 40.8227 89.4585 41.132C88.9038 41.4413 88.2798 41.596 87.5865 41.596ZM97.7586 41.596C96.9053 41.596 96.244 41.3667 95.7746 40.908C95.3053 40.4493 95.0706 39.7933 95.0706 38.94V31.164H96.6066V38.876C96.6066 39.3347 96.7186 39.6867 96.9426 39.932C97.1773 40.1773 97.508 40.3 97.9346 40.3C98.4146 40.3 98.8146 40.1667 99.1346 39.9L99.6146 41.004C99.38 41.2067 99.0973 41.356 98.7666 41.452C98.4466 41.548 98.1106 41.596 97.7586 41.596ZM93.6306 34.284V33.02H99.0386V34.284H93.6306ZM104.822 41.596C103.969 41.596 103.212 41.4093 102.55 41.036C101.889 40.6627 101.366 40.1507 100.982 39.5C100.598 38.8387 100.406 38.092 100.406 37.26C100.406 36.4173 100.598 35.6707 100.982 35.02C101.366 34.3693 101.889 33.8627 102.55 33.5C103.212 33.1267 103.969 32.94 104.822 32.94C105.665 32.94 106.417 33.1267 107.078 33.5C107.75 33.8627 108.273 34.3693 108.646 35.02C109.03 35.66 109.222 36.4067 109.222 37.26C109.222 38.1027 109.03 38.8493 108.646 39.5C108.273 40.1507 107.75 40.6627 107.078 41.036C106.417 41.4093 105.665 41.596 104.822 41.596ZM104.822 40.252C105.366 40.252 105.852 40.1293 106.278 39.884C106.716 39.6387 107.057 39.292 107.302 38.844C107.548 38.3853 107.67 37.8573 107.67 37.26C107.67 36.652 107.548 36.1293 107.302 35.692C107.057 35.244 106.716 34.8973 106.278 34.652C105.852 34.4067 105.366 34.284 104.822 34.284C104.278 34.284 103.793 34.4067 103.366 34.652C102.94 34.8973 102.598 35.244 102.342 35.692C102.086 36.1293 101.958 36.652 101.958 37.26C101.958 37.8573 102.086 38.3853 102.342 38.844C102.598 39.292 102.94 39.6387 103.366 39.884C103.793 40.1293 104.278 40.252 104.822 40.252ZM115.868 41.5V30.3H120.236C121.217 30.3 122.054 30.4547 122.748 30.764C123.441 31.0733 123.974 31.5213 124.348 32.108C124.721 32.6947 124.908 33.3933 124.908 34.204C124.908 35.0147 124.721 35.7133 124.348 36.3C123.974 36.876 123.441 37.324 122.748 37.644C122.054 37.9533 121.217 38.108 120.236 38.108H116.748L117.468 37.356V41.5H115.868ZM117.468 37.516L116.748 36.716H120.188C121.212 36.716 121.985 36.4973 122.508 36.06C123.041 35.6227 123.308 35.004 123.308 34.204C123.308 33.404 123.041 32.7853 122.508 32.348C121.985 31.9107 121.212 31.692 120.188 31.692H116.748L117.468 30.892V37.516ZM132.22 41.5V39.708L132.14 39.372V36.316C132.14 35.6653 131.948 35.164 131.564 34.812C131.191 34.4493 130.625 34.268 129.868 34.268C129.367 34.268 128.876 34.3533 128.396 34.524C127.916 34.684 127.511 34.9027 127.18 35.18L126.54 34.028C126.977 33.676 127.5 33.4093 128.108 33.228C128.727 33.036 129.372 32.94 130.044 32.94C131.207 32.94 132.103 33.2227 132.732 33.788C133.361 34.3533 133.676 35.2173 133.676 36.38V41.5H132.22ZM129.436 41.596C128.807 41.596 128.252 41.4893 127.772 41.276C127.303 41.0627 126.94 40.7693 126.684 40.396C126.428 40.012 126.3 39.58 126.3 39.1C126.3 38.6413 126.407 38.2253 126.62 37.852C126.844 37.4787 127.201 37.18 127.692 36.956C128.193 36.732 128.865 36.62 129.708 36.62H132.396V37.724H129.772C129.004 37.724 128.487 37.852 128.22 38.108C127.953 38.364 127.82 38.6733 127.82 39.036C127.82 39.452 127.985 39.788 128.316 40.044C128.647 40.2893 129.105 40.412 129.692 40.412C130.268 40.412 130.769 40.284 131.196 40.028C131.633 39.772 131.948 39.3987 132.14 38.908L132.444 39.964C132.241 40.4653 131.884 40.8653 131.372 41.164C130.86 41.452 130.215 41.596 129.436 41.596ZM136.519 41.5V33.02H137.991V35.324L137.847 34.748C138.081 34.1613 138.476 33.7133 139.031 33.404C139.585 33.0947 140.268 32.94 141.079 32.94V34.428C141.015 34.4173 140.951 34.412 140.887 34.412C140.833 34.412 140.78 34.412 140.727 34.412C139.905 34.412 139.255 34.6573 138.775 35.148C138.295 35.6387 138.055 36.348 138.055 37.276V41.5H136.519ZM146.227 41.596C145.374 41.596 144.713 41.3667 144.243 40.908C143.774 40.4493 143.539 39.7933 143.539 38.94V31.164H145.075V38.876C145.075 39.3347 145.187 39.6867 145.411 39.932C145.646 40.1773 145.977 40.3 146.403 40.3C146.883 40.3 147.283 40.1667 147.603 39.9L148.083 41.004C147.849 41.2067 147.566 41.356 147.235 41.452C146.915 41.548 146.579 41.596 146.227 41.596ZM142.099 34.284V33.02H147.507V34.284H142.099ZM152.372 41.596C151.668 41.596 150.996 41.5 150.356 41.308C149.727 41.116 149.231 40.8813 148.868 40.604L149.508 39.388C149.871 39.6333 150.319 39.8413 150.852 40.012C151.386 40.1827 151.93 40.268 152.484 40.268C153.199 40.268 153.711 40.1667 154.02 39.964C154.34 39.7613 154.5 39.4787 154.5 39.116C154.5 38.8493 154.404 38.6413 154.212 38.492C154.02 38.3427 153.764 38.2307 153.444 38.156C153.135 38.0813 152.788 38.0173 152.404 37.964C152.02 37.9 151.636 37.8253 151.252 37.74C150.868 37.644 150.516 37.516 150.196 37.356C149.876 37.1853 149.62 36.956 149.428 36.668C149.236 36.3693 149.14 35.9747 149.14 35.484C149.14 34.972 149.284 34.524 149.572 34.14C149.86 33.756 150.266 33.4627 150.788 33.26C151.322 33.0467 151.951 32.94 152.676 32.94C153.231 32.94 153.791 33.0093 154.356 33.148C154.932 33.276 155.402 33.4627 155.764 33.708L155.108 34.924C154.724 34.668 154.324 34.492 153.908 34.396C153.492 34.3 153.076 34.252 152.66 34.252C151.988 34.252 151.487 34.364 151.156 34.588C150.826 34.8013 150.66 35.0787 150.66 35.42C150.66 35.708 150.756 35.932 150.948 36.092C151.151 36.2413 151.407 36.3587 151.716 36.444C152.036 36.5293 152.388 36.604 152.772 36.668C153.156 36.7213 153.54 36.796 153.924 36.892C154.308 36.9773 154.655 37.1 154.964 37.26C155.284 37.42 155.54 37.644 155.732 37.932C155.935 38.22 156.036 38.604 156.036 39.084C156.036 39.596 155.887 40.0387 155.588 40.412C155.29 40.7853 154.868 41.0787 154.324 41.292C153.78 41.4947 153.13 41.596 152.372 41.596Z" fill="white"/>
<defs>
<clipPath id="clip0_1_434">
<rect width="66" height="51" fill="white"/>
</clipPath>
</defs>
</svg>
