<svg width="27" height="30" viewBox="0 0 27 30" fill="none" xmlns="http://www.w3.org/2000/svg">
<path d="M3.29167 29.5832C2.48958 29.5832 1.80271 29.2978 1.23104 28.7271C0.660347 28.1555 0.375 27.4686 0.375 26.6665V6.24984C0.375 5.44775 0.660347 4.76136 1.23104 4.19067C1.80271 3.619 2.48958 3.33317 3.29167 3.33317H4.75V0.416504H7.66667V3.33317H19.3333V0.416504H22.25V3.33317H23.7083C24.5104 3.33317 25.1973 3.619 25.769 4.19067C26.3397 4.76136 26.625 5.44775 26.625 6.24984V26.6665C26.625 27.4686 26.3397 28.1555 25.769 28.7271C25.1973 29.2978 24.5104 29.5832 23.7083 29.5832H3.29167ZM3.29167 26.6665H23.7083V12.0832H3.29167V26.6665ZM3.29167 9.1665H23.7083V6.24984H3.29167V9.1665ZM13.5 17.9165C13.0868 17.9165 12.7407 17.7765 12.4617 17.4965C12.1817 17.2175 12.0417 16.8714 12.0417 16.4582C12.0417 16.045 12.1817 15.6984 12.4617 15.4184C12.7407 15.1393 13.0868 14.9998 13.5 14.9998C13.9132 14.9998 14.2598 15.1393 14.5398 15.4184C14.8188 15.6984 14.9583 16.045 14.9583 16.4582C14.9583 16.8714 14.8188 17.2175 14.5398 17.4965C14.2598 17.7765 13.9132 17.9165 13.5 17.9165ZM7.66667 17.9165C7.25347 17.9165 6.90688 17.7765 6.62688 17.4965C6.34785 17.2175 6.20833 16.8714 6.20833 16.4582C6.20833 16.045 6.34785 15.6984 6.62688 15.4184C6.90688 15.1393 7.25347 14.9998 7.66667 14.9998C8.07986 14.9998 8.42646 15.1393 8.70646 15.4184C8.98549 15.6984 9.125 16.045 9.125 16.4582C9.125 16.8714 8.98549 17.2175 8.70646 17.4965C8.42646 17.7765 8.07986 17.9165 7.66667 17.9165ZM19.3333 17.9165C18.9201 17.9165 18.574 17.7765 18.295 17.4965C18.015 17.2175 17.875 16.8714 17.875 16.4582C17.875 16.045 18.015 15.6984 18.295 15.4184C18.574 15.1393 18.9201 14.9998 19.3333 14.9998C19.7465 14.9998 20.0926 15.1393 20.3717 15.4184C20.6517 15.6984 20.7917 16.045 20.7917 16.4582C20.7917 16.8714 20.6517 17.2175 20.3717 17.4965C20.0926 17.7765 19.7465 17.9165 19.3333 17.9165ZM13.5 23.7498C13.0868 23.7498 12.7407 23.6098 12.4617 23.3298C12.1817 23.0508 12.0417 22.7047 12.0417 22.2915C12.0417 21.8783 12.1817 21.5322 12.4617 21.2532C12.7407 20.9732 13.0868 20.8332 13.5 20.8332C13.9132 20.8332 14.2598 20.9732 14.5398 21.2532C14.8188 21.5322 14.9583 21.8783 14.9583 22.2915C14.9583 22.7047 14.8188 23.0508 14.5398 23.3298C14.2598 23.6098 13.9132 23.7498 13.5 23.7498ZM7.66667 23.7498C7.25347 23.7498 6.90688 23.6098 6.62688 23.3298C6.34785 23.0508 6.20833 22.7047 6.20833 22.2915C6.20833 21.8783 6.34785 21.5322 6.62688 21.2532C6.90688 20.9732 7.25347 20.8332 7.66667 20.8332C8.07986 20.8332 8.42646 20.9732 8.70646 21.2532C8.98549 21.5322 9.125 21.8783 9.125 22.2915C9.125 22.7047 8.98549 23.0508 8.70646 23.3298C8.42646 23.6098 8.07986 23.7498 7.66667 23.7498ZM19.3333 23.7498C18.9201 23.7498 18.574 23.6098 18.295 23.3298C18.015 23.0508 17.875 22.7047 17.875 22.2915C17.875 21.8783 18.015 21.5322 18.295 21.2532C18.574 20.9732 18.9201 20.8332 19.3333 20.8332C19.7465 20.8332 20.0926 20.9732 20.3717 21.2532C20.6517 21.5322 20.7917 21.8783 20.7917 22.2915C20.7917 22.7047 20.6517 23.0508 20.3717 23.3298C20.0926 23.6098 19.7465 23.7498 19.3333 23.7498Z" fill="black"/>
</svg>
