<svg width="31" height="31" viewBox="0 0 31 31" fill="none" xmlns="http://www.w3.org/2000/svg">
<path d="M28.5163 20.9925C26.5175 20.9925 24.5837 20.6675 22.78 20.0825C22.4974 19.9867 22.1936 19.9725 21.9033 20.0415C21.613 20.1105 21.348 20.2598 21.1388 20.4725L18.5875 23.6738C13.9887 21.48 9.6825 17.3363 7.39125 12.575L10.56 9.8775C10.9987 9.4225 11.1287 8.78875 10.95 8.22C10.3488 6.41625 10.04 4.4825 10.04 2.48375C10.04 1.60625 9.30875 0.875 8.43125 0.875H2.80875C1.93125 0.875 0.875 1.265 0.875 2.48375C0.875 17.58 13.4363 30.125 28.5163 30.125C29.67 30.125 30.125 29.1012 30.125 28.2075V22.6013C30.125 21.7238 29.3938 20.9925 28.5163 20.9925Z" fill="#EC3542"/>
</svg>
