<svg width="208" height="70" viewBox="0 0 208 70" fill="none" xmlns="http://www.w3.org/2000/svg">
<g clip-path="url(#clip0_1_409)">
<path d="M61.5493 45.6239C60.7424 45.6234 59.9378 45.5368 59.1491 45.3654L54.8589 44.4164C54.6261 44.3714 54.4047 44.2801 54.2076 44.1478C54.0106 44.0154 53.842 43.8448 53.7117 43.6459C53.5814 43.4471 53.4921 43.224 53.449 42.99C53.406 42.7559 53.4101 42.5155 53.4611 42.283C53.5121 42.0506 53.6089 41.8307 53.7459 41.6364C53.8828 41.4422 54.0572 41.2774 54.2586 41.1519C54.46 41.0264 54.6844 40.9427 54.9186 40.9058C55.1528 40.8688 55.3919 40.8793 55.622 40.9367L59.8944 41.8813C61.634 42.2586 63.4497 42.0279 65.0408 41.2273C66.6319 40.4268 67.903 39.1044 68.6435 37.4792L80.9907 10.136L52.9067 38.6956C52.7446 38.8689 52.5496 39.0078 52.3331 39.1042C52.1167 39.2006 51.8833 39.2526 51.6466 39.257C51.4098 39.2614 51.1746 39.2182 50.9548 39.13C50.7349 39.0417 50.5349 38.9102 50.3664 38.7431C50.198 38.576 50.0645 38.3768 49.9739 38.1571C49.8833 37.9374 49.8374 37.7018 49.8389 37.464C49.8404 37.2262 49.8892 36.9912 49.9825 36.7727C50.0759 36.5541 50.2118 36.3566 50.3823 36.1916L85.4318 0.5478C85.7244 0.250293 86.1119 0.0656064 86.5265 0.0260572C86.941 -0.0134919 87.3562 0.0946154 87.6994 0.331462C88.0426 0.568309 88.2919 0.91881 88.4038 1.32163C88.5156 1.72446 88.4828 2.15394 88.3112 2.53494L71.8956 38.954C70.9859 40.9423 69.5279 42.6272 67.6943 43.8093C65.8607 44.9914 63.7282 45.6211 61.5493 45.6239Z" fill="#EC3542"/>
<path d="M58.5369 32.2399C58.4557 32.2463 58.3741 32.2463 58.2929 32.2399C58.0613 32.2066 57.8385 32.1277 57.6374 32.0076C57.4363 31.8876 57.2608 31.7288 57.121 31.5404C56.9812 31.352 56.8799 31.1377 56.8229 30.9098C56.7659 30.6819 56.7544 30.445 56.7889 30.2126L59.4775 10.6085L49.0647 26.1002C48.9461 26.3183 48.7834 26.5091 48.5871 26.6603C48.3908 26.8115 48.1651 26.9198 47.9246 26.9783C47.6841 27.0368 47.4341 27.0441 47.1907 26.9998C46.9472 26.9555 46.7157 26.8605 46.5109 26.721C46.3061 26.5816 46.1326 26.4006 46.0016 26.1898C45.8706 25.979 45.7849 25.7431 45.7501 25.4971C45.7153 25.2511 45.732 25.0005 45.7993 24.7613C45.8667 24.5222 45.983 24.2999 46.1409 24.1086L60.7819 2.26341C61.0059 1.92952 61.3359 1.68164 61.7181 1.56014C62.1003 1.43864 62.5122 1.45069 62.8867 1.59431C63.2612 1.73794 63.5763 2.00468 63.7806 2.3511C63.9849 2.69751 64.0664 3.10318 64.0117 3.50203L60.285 30.6804C60.2312 31.1089 60.0243 31.5033 59.7028 31.7901C59.3813 32.0769 58.967 32.2368 58.5369 32.2399Z" fill="#EC3542"/>
<path d="M52.7606 32.24C52.5229 32.2396 52.2877 32.1913 52.069 32.098C51.8503 32.0046 51.6524 31.868 51.4873 31.6964L46.5848 26.6216C45.261 25.2611 43.489 24.4315 41.6002 24.288C39.7115 24.1445 37.8353 24.6969 36.3228 25.8419C34.3544 27.3257 31.9604 28.1292 29.4992 28.132H1.77466C1.30399 28.132 0.852598 27.9443 0.519785 27.61C0.186972 27.2758 0 26.8225 0 26.3499C0 25.8772 0.186972 25.4239 0.519785 25.0897C0.852598 24.7554 1.30399 24.5677 1.77466 24.5677H29.4992C31.1892 24.5657 32.833 24.0139 34.1843 22.9949C36.3907 21.3286 39.1263 20.5275 41.8787 20.7416C44.6311 20.9556 47.2113 22.1702 49.1358 24.1578L54.0161 29.2281C54.2596 29.4793 54.4239 29.7971 54.4885 30.1416C54.553 30.4861 54.515 30.8421 54.3791 31.165C54.2432 31.4879 54.0154 31.7634 53.7244 31.957C53.4333 32.1506 53.0919 32.2537 52.7428 32.2534L52.7606 32.24Z" fill="#EC3542"/>
<path d="M89.2255 70.0001C89.0599 70.0076 88.894 69.9911 88.733 69.9511L59.4512 61.7887C49.5135 59.0374 41.0489 52.4775 35.8793 43.5212L32.5163 37.689C32.3819 37.4864 32.2903 37.2582 32.2471 37.0187C32.204 36.7791 32.2101 36.5332 32.2652 36.2961C32.3203 36.059 32.4232 35.8358 32.5675 35.6402C32.7118 35.4445 32.8945 35.2807 33.1043 35.1587C33.3141 35.0368 33.5466 34.9593 33.7874 34.931C34.0282 34.9027 34.2722 34.9243 34.5044 34.9944C34.7365 35.0645 34.9519 35.1816 35.1373 35.3386C35.3226 35.4955 35.474 35.6889 35.582 35.9068L38.9628 41.7301C43.6714 49.8769 51.3755 55.8426 60.4184 58.3446L83.4091 64.7427L68.8081 49.6341C68.6401 49.4674 68.507 49.2687 68.4166 49.0496C68.3261 48.8306 68.28 48.5956 68.2811 48.3585C68.2822 48.1213 68.3304 47.8868 68.423 47.6686C68.5155 47.4504 68.6504 47.2529 68.8199 47.0878C68.9894 46.9226 69.19 46.7931 69.4099 46.7068C69.6299 46.6205 69.8648 46.5791 70.1008 46.5852C70.3369 46.5912 70.5694 46.6445 70.7847 46.7419C71 46.8393 71.1938 46.9789 71.3547 47.1524L90.5077 66.9749C90.7512 67.2261 90.9155 67.5438 90.98 67.8883C91.0446 68.2329 91.0065 68.5889 90.8706 68.9118C90.7347 69.2347 90.507 69.5102 90.2159 69.7038C89.9249 69.8974 89.5835 70.0004 89.2344 70.0001H89.2255Z" fill="#EC3542"/>
</g>
<path d="M106.472 28.16L106.256 23.672L114.296 15.2H118.616L111.368 23L109.208 25.304L106.472 28.16ZM102.992 32V15.2H106.856V32H102.992ZM114.488 32L108.512 24.68L111.056 21.92L119.024 32H114.488ZM129.332 32V29.48L129.092 28.928V24.416C129.092 23.616 128.844 22.992 128.348 22.544C127.868 22.096 127.124 21.872 126.116 21.872C125.428 21.872 124.748 21.984 124.076 22.208C123.42 22.416 122.86 22.704 122.396 23.072L121.052 20.456C121.756 19.96 122.604 19.576 123.596 19.304C124.588 19.032 125.596 18.896 126.62 18.896C128.588 18.896 130.116 19.36 131.204 20.288C132.292 21.216 132.836 22.664 132.836 24.632V32H129.332ZM125.396 32.192C124.388 32.192 123.524 32.024 122.804 31.688C122.084 31.336 121.532 30.864 121.148 30.272C120.764 29.68 120.572 29.016 120.572 28.28C120.572 27.512 120.756 26.84 121.124 26.264C121.508 25.688 122.108 25.24 122.924 24.92C123.74 24.584 124.804 24.416 126.116 24.416H129.548V26.6H126.524C125.644 26.6 125.036 26.744 124.7 27.032C124.38 27.32 124.22 27.68 124.22 28.112C124.22 28.592 124.404 28.976 124.772 29.264C125.156 29.536 125.676 29.672 126.332 29.672C126.956 29.672 127.516 29.528 128.012 29.24C128.508 28.936 128.868 28.496 129.092 27.92L129.668 29.648C129.396 30.48 128.9 31.112 128.18 31.544C127.46 31.976 126.532 32.192 125.396 32.192ZM137.425 32V14.192H141.169V32H137.425ZM145.844 32V19.088H149.588V32H145.844ZM147.716 17.288C147.028 17.288 146.468 17.088 146.036 16.688C145.604 16.288 145.388 15.792 145.388 15.2C145.388 14.608 145.604 14.112 146.036 13.712C146.468 13.312 147.028 13.112 147.716 13.112C148.404 13.112 148.964 13.304 149.396 13.688C149.828 14.056 150.044 14.536 150.044 15.128C150.044 15.752 149.828 16.272 149.396 16.688C148.98 17.088 148.42 17.288 147.716 17.288ZM161.894 32.192C160.806 32.192 159.854 31.952 159.038 31.472C158.222 30.992 157.582 30.264 157.118 29.288C156.67 28.296 156.446 27.048 156.446 25.544C156.446 24.024 156.662 22.776 157.094 21.8C157.526 20.824 158.15 20.096 158.966 19.616C159.782 19.136 160.758 18.896 161.894 18.896C163.11 18.896 164.198 19.176 165.158 19.736C166.134 20.28 166.902 21.048 167.462 22.04C168.038 23.032 168.326 24.2 168.326 25.544C168.326 26.904 168.038 28.08 167.462 29.072C166.902 30.064 166.134 30.832 165.158 31.376C164.198 31.92 163.11 32.192 161.894 32.192ZM154.262 36.656V19.088H157.838V21.728L157.766 25.568L158.006 29.384V36.656H154.262ZM161.246 29.12C161.87 29.12 162.422 28.976 162.902 28.688C163.398 28.4 163.79 27.992 164.078 27.464C164.382 26.92 164.534 26.28 164.534 25.544C164.534 24.792 164.382 24.152 164.078 23.624C163.79 23.096 163.398 22.688 162.902 22.4C162.422 22.112 161.87 21.968 161.246 21.968C160.622 21.968 160.062 22.112 159.566 22.4C159.07 22.688 158.678 23.096 158.39 23.624C158.102 24.152 157.958 24.792 157.958 25.544C157.958 26.28 158.102 26.92 158.39 27.464C158.678 27.992 159.07 28.4 159.566 28.688C160.062 28.976 160.622 29.12 161.246 29.12ZM177.313 32.192C175.793 32.192 174.609 31.808 173.761 31.04C172.913 30.256 172.489 29.096 172.489 27.56V16.232H176.233V27.512C176.233 28.056 176.377 28.48 176.665 28.784C176.953 29.072 177.345 29.216 177.841 29.216C178.433 29.216 178.937 29.056 179.353 28.736L180.361 31.376C179.977 31.648 179.513 31.856 178.969 32C178.441 32.128 177.889 32.192 177.313 32.192ZM170.497 22.256V19.376H179.449V22.256H170.497ZM191.582 32V29.48L191.342 28.928V24.416C191.342 23.616 191.094 22.992 190.598 22.544C190.118 22.096 189.374 21.872 188.366 21.872C187.678 21.872 186.998 21.984 186.326 22.208C185.67 22.416 185.11 22.704 184.646 23.072L183.302 20.456C184.006 19.96 184.854 19.576 185.846 19.304C186.838 19.032 187.846 18.896 188.87 18.896C190.838 18.896 192.366 19.36 193.454 20.288C194.542 21.216 195.086 22.664 195.086 24.632V32H191.582ZM187.646 32.192C186.638 32.192 185.774 32.024 185.054 31.688C184.334 31.336 183.782 30.864 183.398 30.272C183.014 29.68 182.822 29.016 182.822 28.28C182.822 27.512 183.006 26.84 183.374 26.264C183.758 25.688 184.358 25.24 185.174 24.92C185.99 24.584 187.054 24.416 188.366 24.416H191.798V26.6H188.774C187.894 26.6 187.286 26.744 186.95 27.032C186.63 27.32 186.47 27.68 186.47 28.112C186.47 28.592 186.654 28.976 187.022 29.264C187.406 29.536 187.926 29.672 188.582 29.672C189.206 29.672 189.766 29.528 190.262 29.24C190.758 28.936 191.118 28.496 191.342 27.92L191.918 29.648C191.646 30.48 191.15 31.112 190.43 31.544C189.71 31.976 188.782 32.192 187.646 32.192Z" fill="white"/>
<path d="M100.98 57L107.32 43H109.3L115.66 57H113.56L107.9 44.12H108.7L103.04 57H100.98ZM103.68 53.5L104.22 51.9H112.1L112.68 53.5H103.68ZM121.733 57.12C120.826 57.12 120.026 56.9533 119.333 56.62C118.653 56.2867 118.12 55.78 117.733 55.1C117.36 54.4067 117.173 53.54 117.173 52.5V46.4H119.093V52.28C119.093 53.32 119.34 54.1 119.833 54.62C120.34 55.14 121.046 55.4 121.953 55.4C122.62 55.4 123.2 55.2667 123.693 55C124.186 54.72 124.566 54.32 124.833 53.8C125.1 53.2667 125.233 52.6267 125.233 51.88V46.4H127.153V57H125.333V54.14L125.633 54.9C125.286 55.6067 124.766 56.1533 124.073 56.54C123.38 56.9267 122.6 57.12 121.733 57.12ZM134.448 57.12C133.382 57.12 132.555 56.8333 131.968 56.26C131.382 55.6867 131.088 54.8667 131.088 53.8V44.08H133.008V53.72C133.008 54.2933 133.148 54.7333 133.428 55.04C133.722 55.3467 134.135 55.5 134.668 55.5C135.268 55.5 135.768 55.3333 136.168 55L136.768 56.38C136.475 56.6333 136.122 56.82 135.708 56.94C135.308 57.06 134.888 57.12 134.448 57.12ZM129.288 47.98V46.4H136.048V47.98H129.288ZM143.278 57.12C142.211 57.12 141.265 56.8867 140.438 56.42C139.611 55.9533 138.958 55.3133 138.478 54.5C137.998 53.6733 137.758 52.74 137.758 51.7C137.758 50.6467 137.998 49.7133 138.478 48.9C138.958 48.0867 139.611 47.4533 140.438 47C141.265 46.5333 142.211 46.3 143.278 46.3C144.331 46.3 145.271 46.5333 146.098 47C146.938 47.4533 147.591 48.0867 148.058 48.9C148.538 49.7 148.778 50.6333 148.778 51.7C148.778 52.7533 148.538 53.6867 148.058 54.5C147.591 55.3133 146.938 55.9533 146.098 56.42C145.271 56.8867 144.331 57.12 143.278 57.12ZM143.278 55.44C143.958 55.44 144.565 55.2867 145.098 54.98C145.645 54.6733 146.071 54.24 146.378 53.68C146.685 53.1067 146.838 52.4467 146.838 51.7C146.838 50.94 146.685 50.2867 146.378 49.74C146.071 49.18 145.645 48.7467 145.098 48.44C144.565 48.1333 143.958 47.98 143.278 47.98C142.598 47.98 141.991 48.1333 141.458 48.44C140.925 48.7467 140.498 49.18 140.178 49.74C139.858 50.2867 139.698 50.94 139.698 51.7C139.698 52.4467 139.858 53.1067 140.178 53.68C140.498 54.24 140.925 54.6733 141.458 54.98C141.991 55.2867 142.598 55.44 143.278 55.44ZM157.084 57V43H162.544C163.771 43 164.818 43.1933 165.684 43.58C166.551 43.9667 167.218 44.5267 167.684 45.26C168.151 45.9933 168.384 46.8667 168.384 47.88C168.384 48.8933 168.151 49.7667 167.684 50.5C167.218 51.22 166.551 51.78 165.684 52.18C164.818 52.5667 163.771 52.76 162.544 52.76H158.184L159.084 51.82V57H157.084ZM159.084 52.02L158.184 51.02H162.484C163.764 51.02 164.731 50.7467 165.384 50.2C166.051 49.6533 166.384 48.88 166.384 47.88C166.384 46.88 166.051 46.1067 165.384 45.56C164.731 45.0133 163.764 44.74 162.484 44.74H158.184L159.084 43.74V52.02ZM177.525 57V54.76L177.425 54.34V50.52C177.425 49.7067 177.185 49.08 176.705 48.64C176.238 48.1867 175.532 47.96 174.585 47.96C173.958 47.96 173.345 48.0667 172.745 48.28C172.145 48.48 171.638 48.7533 171.225 49.1L170.425 47.66C170.972 47.22 171.625 46.8867 172.385 46.66C173.158 46.42 173.965 46.3 174.805 46.3C176.258 46.3 177.378 46.6533 178.165 47.36C178.952 48.0667 179.345 49.1467 179.345 50.6V57H177.525ZM174.045 57.12C173.258 57.12 172.565 56.9867 171.965 56.72C171.378 56.4533 170.925 56.0867 170.605 55.62C170.285 55.14 170.125 54.6 170.125 54C170.125 53.4267 170.258 52.9067 170.525 52.44C170.805 51.9733 171.252 51.6 171.865 51.32C172.492 51.04 173.332 50.9 174.385 50.9H177.745V52.28H174.465C173.505 52.28 172.858 52.44 172.525 52.76C172.192 53.08 172.025 53.4667 172.025 53.92C172.025 54.44 172.232 54.86 172.645 55.18C173.058 55.4867 173.632 55.64 174.365 55.64C175.085 55.64 175.712 55.48 176.245 55.16C176.792 54.84 177.185 54.3733 177.425 53.76L177.805 55.08C177.552 55.7067 177.105 56.2067 176.465 56.58C175.825 56.94 175.018 57.12 174.045 57.12ZM182.898 57V46.4H184.738V49.28L184.558 48.56C184.851 47.8267 185.345 47.2667 186.038 46.88C186.731 46.4933 187.585 46.3 188.598 46.3V48.16C188.518 48.1467 188.438 48.14 188.358 48.14C188.291 48.14 188.225 48.14 188.158 48.14C187.131 48.14 186.318 48.4467 185.718 49.06C185.118 49.6733 184.818 50.56 184.818 51.72V57H182.898ZM195.034 57.12C193.968 57.12 193.141 56.8333 192.554 56.26C191.968 55.6867 191.674 54.8667 191.674 53.8V44.08H193.594V53.72C193.594 54.2933 193.734 54.7333 194.014 55.04C194.308 55.3467 194.721 55.5 195.254 55.5C195.854 55.5 196.354 55.3333 196.754 55L197.354 56.38C197.061 56.6333 196.708 56.82 196.294 56.94C195.894 57.06 195.474 57.12 195.034 57.12ZM189.874 47.98V46.4H196.634V47.98H189.874ZM202.715 57.12C201.835 57.12 200.995 57 200.195 56.76C199.409 56.52 198.789 56.2267 198.335 55.88L199.135 54.36C199.589 54.6667 200.149 54.9267 200.815 55.14C201.482 55.3533 202.162 55.46 202.855 55.46C203.749 55.46 204.389 55.3333 204.775 55.08C205.175 54.8267 205.375 54.4733 205.375 54.02C205.375 53.6867 205.255 53.4267 205.015 53.24C204.775 53.0533 204.455 52.9133 204.055 52.82C203.669 52.7267 203.235 52.6467 202.755 52.58C202.275 52.5 201.795 52.4067 201.315 52.3C200.835 52.18 200.395 52.02 199.995 51.82C199.595 51.6067 199.275 51.32 199.035 50.96C198.795 50.5867 198.675 50.0933 198.675 49.48C198.675 48.84 198.855 48.28 199.215 47.8C199.575 47.32 200.082 46.9533 200.735 46.7C201.402 46.4333 202.189 46.3 203.095 46.3C203.789 46.3 204.489 46.3867 205.195 46.56C205.915 46.72 206.502 46.9533 206.955 47.26L206.135 48.78C205.655 48.46 205.155 48.24 204.635 48.12C204.115 48 203.595 47.94 203.075 47.94C202.235 47.94 201.609 48.08 201.195 48.36C200.782 48.6267 200.575 48.9733 200.575 49.4C200.575 49.76 200.695 50.04 200.935 50.24C201.189 50.4267 201.509 50.5733 201.895 50.68C202.295 50.7867 202.735 50.88 203.215 50.96C203.695 51.0267 204.175 51.12 204.655 51.24C205.135 51.3467 205.569 51.5 205.955 51.7C206.355 51.9 206.675 52.18 206.915 52.54C207.169 52.9 207.295 53.38 207.295 53.98C207.295 54.62 207.109 55.1733 206.735 55.64C206.362 56.1067 205.835 56.4733 205.155 56.74C204.475 56.9933 203.662 57.12 202.715 57.12Z" fill="white"/>
<defs>
<clipPath id="clip0_1_409">
<rect width="91" height="70" fill="white"/>
</clipPath>
</defs>
</svg>
