<svg width="130" height="35" viewBox="0 0 130 35" fill="none" xmlns="http://www.w3.org/2000/svg">
<g clip-path="url(#clip0_1_2404)">
<path d="M30.4364 23.1602C30.0374 23.1599 29.6395 23.1179 29.2495 23.0347L27.1279 22.5737C27.0128 22.5519 26.9033 22.5075 26.8059 22.4432C26.7085 22.3789 26.6251 22.2961 26.5606 22.1995C26.4962 22.1029 26.452 21.9945 26.4308 21.8808C26.4095 21.7672 26.4115 21.6504 26.4367 21.5375C26.4619 21.4246 26.5098 21.3178 26.5775 21.2234C26.6453 21.1291 26.7315 21.049 26.8311 20.9881C26.9307 20.9271 27.0417 20.8865 27.1575 20.8685C27.2733 20.8506 27.3915 20.8557 27.5053 20.8836L29.618 21.3423C30.4783 21.5256 31.3761 21.4136 32.1629 21.0247C32.9498 20.6359 33.5783 19.9936 33.9445 19.2042L40.0503 5.92321L26.1626 19.795C26.0824 19.8792 25.986 19.9467 25.8789 19.9935C25.7719 20.0403 25.6565 20.0655 25.5394 20.0677C25.4224 20.0698 25.306 20.0489 25.1973 20.006C25.0886 19.9631 24.9897 19.8992 24.9064 19.8181C24.8231 19.7369 24.7571 19.6402 24.7123 19.5335C24.6675 19.4268 24.6448 19.3123 24.6455 19.1968C24.6463 19.0813 24.6704 18.9672 24.7166 18.861C24.7627 18.7549 24.8299 18.6589 24.9142 18.5788L42.2464 1.26609C42.3911 1.12158 42.5827 1.03188 42.7877 1.01267C42.9927 0.993461 43.198 1.04597 43.3678 1.16101C43.5375 1.27605 43.6608 1.44629 43.7161 1.64195C43.7714 1.83761 43.7552 2.04622 43.6703 2.23127L35.5527 19.9205C35.1028 20.8863 34.3818 21.7047 33.4751 22.2788C32.5684 22.853 31.5139 23.1588 30.4364 23.1602Z" fill="#EC3542"/>
<path d="M28.9471 16.6592C28.907 16.6624 28.8666 16.6624 28.8265 16.6592C28.7119 16.6431 28.6018 16.6047 28.5023 16.5464C28.4029 16.4881 28.3161 16.411 28.247 16.3195C28.1778 16.228 28.1277 16.1239 28.0995 16.0132C28.0714 15.9025 28.0656 15.7874 28.0827 15.6746L29.4122 6.15257L24.2631 13.6771C24.2044 13.783 24.124 13.8757 24.0269 13.9492C23.9298 14.0226 23.8182 14.0752 23.6993 14.1036C23.5804 14.132 23.4567 14.1356 23.3363 14.114C23.2159 14.0925 23.1014 14.0464 23.0002 13.9787C22.8989 13.9109 22.8131 13.823 22.7484 13.7206C22.6836 13.6183 22.6412 13.5036 22.624 13.3841C22.6067 13.2647 22.615 13.1429 22.6483 13.0268C22.6816 12.9107 22.7391 12.8027 22.8172 12.7098L30.0573 2.09923C30.168 1.93706 30.3312 1.81666 30.5202 1.75764C30.7092 1.69863 30.9129 1.70448 31.0981 1.77424C31.2833 1.844 31.4391 1.97356 31.5402 2.14182C31.6412 2.31008 31.6815 2.50712 31.6545 2.70085L29.8115 15.9018C29.785 16.1099 29.6827 16.3015 29.5237 16.4408C29.3647 16.5801 29.1598 16.6577 28.9471 16.6592Z" fill="#EC3542"/>
<path d="M26.0904 16.6591C25.9729 16.6589 25.8566 16.6355 25.7484 16.5901C25.6402 16.5448 25.5424 16.4784 25.4607 16.3951L23.0364 13.9302C22.3818 13.2694 21.5055 12.8664 20.5715 12.7967C19.6375 12.727 18.7098 12.9953 17.9618 13.5515C16.9885 14.2721 15.8046 14.6624 14.5875 14.6638H0.877578C0.64483 14.6638 0.421614 14.5726 0.257037 14.4103C0.0924589 14.2479 0 14.0278 0 13.7982C0 13.5686 0.0924589 13.3484 0.257037 13.1861C0.421614 13.0237 0.64483 12.9325 0.877578 12.9325H14.5875C15.4232 12.9316 16.2361 12.6636 16.9043 12.1686C17.9954 11.3593 19.3482 10.9702 20.7092 11.0741C22.0703 11.1781 23.3462 11.7681 24.2979 12.7334L26.7113 15.1962C26.8317 15.3182 26.9129 15.4725 26.9449 15.6399C26.9768 15.8072 26.958 15.9801 26.8908 16.137C26.8235 16.2938 26.7109 16.4276 26.567 16.5217C26.4231 16.6157 26.2542 16.6658 26.0816 16.6656L26.0904 16.6591Z" fill="#EC3542"/>
<path d="M44.1223 35.0001C44.0404 35.0038 43.9583 34.9957 43.8788 34.9763L29.3987 31.0117C24.4845 29.6753 20.2987 26.4891 17.7423 22.1389L16.0793 19.3061C16.0128 19.2077 15.9675 19.0969 15.9462 18.9806C15.9248 18.8642 15.9278 18.7448 15.9551 18.6296C15.9823 18.5144 16.0332 18.406 16.1046 18.311C16.176 18.216 16.2663 18.1364 16.3701 18.0772C16.4738 18.0179 16.5888 17.9803 16.7078 17.9665C16.8269 17.9528 16.9476 17.9633 17.0624 17.9973C17.1772 18.0314 17.2837 18.0883 17.3754 18.1645C17.467 18.2407 17.5419 18.3347 17.5953 18.4405L19.2671 21.269C21.5955 25.226 25.4052 28.1236 29.877 29.3389L41.246 32.4465L34.0257 25.1081C33.9427 25.0271 33.8769 24.9306 33.8321 24.8242C33.7874 24.7178 33.7646 24.6036 33.7652 24.4885C33.7657 24.3733 33.7896 24.2594 33.8353 24.1534C33.8811 24.0474 33.9478 23.9515 34.0316 23.8713C34.1154 23.791 34.2146 23.7281 34.3234 23.6862C34.4321 23.6443 34.5483 23.6242 34.665 23.6271C34.7818 23.6301 34.8967 23.6559 35.0032 23.7033C35.1097 23.7506 35.2055 23.8184 35.2851 23.9027L44.7563 33.5307C44.8767 33.6527 44.958 33.8071 44.9899 33.9744C45.0218 34.1417 45.003 34.3147 44.9358 34.4715C44.8686 34.6283 44.756 34.7622 44.6121 34.8562C44.4681 34.9502 44.2993 35.0003 44.1267 35.0001H44.1223Z" fill="#EC3542"/>
</g>
<path d="M58.648 11.44L58.504 8.448L63.864 2.8H66.744L61.912 8L60.472 9.536L58.648 11.44ZM56.328 14V2.8H58.904V14H56.328ZM63.992 14L60.008 9.12L61.704 7.28L67.016 14H63.992ZM73.8883 14V12.32L73.7283 11.952V8.944C73.7283 8.41067 73.5629 7.99467 73.2323 7.696C72.9123 7.39733 72.4163 7.248 71.7443 7.248C71.2856 7.248 70.8323 7.32267 70.3843 7.472C69.9469 7.61067 69.5736 7.80267 69.2643 8.048L68.3683 6.304C68.8376 5.97333 69.4029 5.71733 70.0643 5.536C70.7256 5.35467 71.3976 5.264 72.0803 5.264C73.3923 5.264 74.4109 5.57333 75.1363 6.192C75.8616 6.81067 76.2243 7.776 76.2243 9.088V14H73.8883ZM71.2643 14.128C70.5923 14.128 70.0163 14.016 69.5363 13.792C69.0563 13.5573 68.6883 13.2427 68.4323 12.848C68.1763 12.4533 68.0483 12.0107 68.0483 11.52C68.0483 11.008 68.1709 10.56 68.4163 10.176C68.6723 9.792 69.0723 9.49333 69.6163 9.28C70.1603 9.056 70.8696 8.944 71.7443 8.944H74.0323V10.4H72.0163C71.4296 10.4 71.0243 10.496 70.8003 10.688C70.5869 10.88 70.4803 11.12 70.4803 11.408C70.4803 11.728 70.6029 11.984 70.8483 12.176C71.1043 12.3573 71.4509 12.448 71.8883 12.448C72.3043 12.448 72.6776 12.352 73.0083 12.16C73.3389 11.9573 73.5789 11.664 73.7283 11.28L74.1123 12.432C73.9309 12.9867 73.6003 13.408 73.1203 13.696C72.6403 13.984 72.0216 14.128 71.2643 14.128ZM79.2833 14V2.128H81.7793V14H79.2833ZM84.8957 14V5.392H87.3917V14H84.8957ZM86.1437 4.192C85.6851 4.192 85.3117 4.05867 85.0237 3.792C84.7357 3.52533 84.5917 3.19467 84.5917 2.8C84.5917 2.40533 84.7357 2.07467 85.0237 1.808C85.3117 1.54133 85.6851 1.408 86.1437 1.408C86.6024 1.408 86.9757 1.536 87.2637 1.792C87.5517 2.03733 87.6957 2.35733 87.6957 2.752C87.6957 3.168 87.5517 3.51467 87.2637 3.792C86.9864 4.05867 86.6131 4.192 86.1437 4.192ZM95.5963 14.128C94.8709 14.128 94.2363 13.968 93.6923 13.648C93.1483 13.328 92.7216 12.8427 92.4123 12.192C92.1136 11.5307 91.9643 10.6987 91.9643 9.696C91.9643 8.68267 92.1083 7.85067 92.3963 7.2C92.6843 6.54933 93.1003 6.064 93.6443 5.744C94.1883 5.424 94.8389 5.264 95.5963 5.264C96.4069 5.264 97.1323 5.45067 97.7723 5.824C98.4229 6.18667 98.9349 6.69867 99.3083 7.36C99.6923 8.02133 99.8843 8.8 99.8843 9.696C99.8843 10.6027 99.6923 11.3867 99.3083 12.048C98.9349 12.7093 98.4229 13.2213 97.7723 13.584C97.1323 13.9467 96.4069 14.128 95.5963 14.128ZM90.5083 17.104V5.392H92.8923V7.152L92.8443 9.712L93.0043 12.256V17.104H90.5083ZM95.1643 12.08C95.5803 12.08 95.9483 11.984 96.2683 11.792C96.5989 11.6 96.8603 11.328 97.0523 10.976C97.2549 10.6133 97.3563 10.1867 97.3563 9.696C97.3563 9.19467 97.2549 8.768 97.0523 8.416C96.8603 8.064 96.5989 7.792 96.2683 7.6C95.9483 7.408 95.5803 7.312 95.1643 7.312C94.7483 7.312 94.3749 7.408 94.0443 7.6C93.7136 7.792 93.4523 8.064 93.2603 8.416C93.0683 8.768 92.9723 9.19467 92.9723 9.696C92.9723 10.1867 93.0683 10.6133 93.2603 10.976C93.4523 11.328 93.7136 11.6 94.0443 11.792C94.3749 11.984 94.7483 12.08 95.1643 12.08ZM105.875 14.128C104.862 14.128 104.072 13.872 103.507 13.36C102.942 12.8373 102.659 12.064 102.659 11.04V3.488H105.155V11.008C105.155 11.3707 105.251 11.6533 105.443 11.856C105.635 12.048 105.896 12.144 106.227 12.144C106.622 12.144 106.958 12.0373 107.235 11.824L107.907 13.584C107.651 13.7653 107.342 13.904 106.979 14C106.627 14.0853 106.259 14.128 105.875 14.128ZM101.331 7.504V5.584H107.299V7.504H101.331ZM115.388 14V12.32L115.228 11.952V8.944C115.228 8.41067 115.063 7.99467 114.732 7.696C114.412 7.39733 113.916 7.248 113.244 7.248C112.786 7.248 112.332 7.32267 111.884 7.472C111.447 7.61067 111.074 7.80267 110.764 8.048L109.868 6.304C110.338 5.97333 110.903 5.71733 111.564 5.536C112.226 5.35467 112.898 5.264 113.58 5.264C114.892 5.264 115.911 5.57333 116.636 6.192C117.362 6.81067 117.724 7.776 117.724 9.088V14H115.388ZM112.764 14.128C112.092 14.128 111.516 14.016 111.036 13.792C110.556 13.5573 110.188 13.2427 109.932 12.848C109.676 12.4533 109.548 12.0107 109.548 11.52C109.548 11.008 109.671 10.56 109.916 10.176C110.172 9.792 110.572 9.49333 111.116 9.28C111.66 9.056 112.37 8.944 113.244 8.944H115.532V10.4H113.516C112.93 10.4 112.524 10.496 112.3 10.688C112.087 10.88 111.98 11.12 111.98 11.408C111.98 11.728 112.103 11.984 112.348 12.176C112.604 12.3573 112.951 12.448 113.388 12.448C113.804 12.448 114.178 12.352 114.508 12.16C114.839 11.9573 115.079 11.664 115.228 11.28L115.612 12.432C115.431 12.9867 115.1 13.408 114.62 13.696C114.14 13.984 113.522 14.128 112.764 14.128Z" fill="white"/>
<path d="M54.986 33L59.424 23.2H60.81L65.262 33H63.792L59.83 23.984H60.39L56.428 33H54.986ZM56.876 30.55L57.254 29.43H62.77L63.176 30.55H56.876ZM69.5132 33.084C68.8785 33.084 68.3185 32.9673 67.8332 32.734C67.3572 32.5007 66.9839 32.146 66.7132 31.67C66.4519 31.1847 66.3212 30.578 66.3212 29.85V25.58H67.6652V29.696C67.6652 30.424 67.8379 30.97 68.1832 31.334C68.5379 31.698 69.0325 31.88 69.6672 31.88C70.1339 31.88 70.5399 31.7867 70.8852 31.6C71.2305 31.404 71.4965 31.124 71.6832 30.76C71.8699 30.3867 71.9632 29.9387 71.9632 29.416V25.58H73.3072V33H72.0332V30.998L72.2432 31.53C72.0005 32.0247 71.6365 32.4073 71.1512 32.678C70.6659 32.9487 70.1199 33.084 69.5132 33.084ZM78.4138 33.084C77.6671 33.084 77.0885 32.8833 76.6778 32.482C76.2671 32.0807 76.0618 31.5067 76.0618 30.76V23.956H77.4058V30.704C77.4058 31.1053 77.5038 31.4133 77.6998 31.628C77.9051 31.8427 78.1945 31.95 78.5678 31.95C78.9878 31.95 79.3378 31.8333 79.6178 31.6L80.0378 32.566C79.8325 32.7433 79.5851 32.874 79.2958 32.958C79.0158 33.042 78.7218 33.084 78.4138 33.084ZM74.8018 26.686V25.58H79.5338V26.686H74.8018ZM84.5946 33.084C83.8479 33.084 83.1852 32.9207 82.6066 32.594C82.0279 32.2673 81.5706 31.8193 81.2346 31.25C80.8986 30.6713 80.7306 30.018 80.7306 29.29C80.7306 28.5527 80.8986 27.8993 81.2346 27.33C81.5706 26.7607 82.0279 26.3173 82.6066 26C83.1852 25.6733 83.8479 25.51 84.5946 25.51C85.3319 25.51 85.9899 25.6733 86.5686 26C87.1566 26.3173 87.6139 26.7607 87.9406 27.33C88.2766 27.89 88.4446 28.5433 88.4446 29.29C88.4446 30.0273 88.2766 30.6807 87.9406 31.25C87.6139 31.8193 87.1566 32.2673 86.5686 32.594C85.9899 32.9207 85.3319 33.084 84.5946 33.084ZM84.5946 31.908C85.0706 31.908 85.4952 31.8007 85.8686 31.586C86.2512 31.3713 86.5499 31.068 86.7646 30.676C86.9792 30.2747 87.0866 29.8127 87.0866 29.29C87.0866 28.758 86.9792 28.3007 86.7646 27.918C86.5499 27.526 86.2512 27.2227 85.8686 27.008C85.4952 26.7933 85.0706 26.686 84.5946 26.686C84.1186 26.686 83.6939 26.7933 83.3206 27.008C82.9472 27.2227 82.6486 27.526 82.4246 27.918C82.2006 28.3007 82.0886 28.758 82.0886 29.29C82.0886 29.8127 82.2006 30.2747 82.4246 30.676C82.6486 31.068 82.9472 31.3713 83.3206 31.586C83.6939 31.8007 84.1186 31.908 84.5946 31.908ZM94.2591 33V23.2H98.0811C98.9397 23.2 99.6724 23.3353 100.279 23.606C100.886 23.8767 101.352 24.2687 101.679 24.782C102.006 25.2953 102.169 25.9067 102.169 26.616C102.169 27.3253 102.006 27.9367 101.679 28.45C101.352 28.954 100.886 29.346 100.279 29.626C99.6724 29.8967 98.9397 30.032 98.0811 30.032H95.0291L95.6591 29.374V33H94.2591ZM95.6591 29.514L95.0291 28.814H98.0391C98.9351 28.814 99.6117 28.6227 100.069 28.24C100.536 27.8573 100.769 27.316 100.769 26.616C100.769 25.916 100.536 25.3747 100.069 24.992C99.6117 24.6093 98.9351 24.418 98.0391 24.418H95.0291L95.6591 23.718V29.514ZM108.568 33V31.432L108.498 31.138V28.464C108.498 27.8947 108.33 27.456 107.994 27.148C107.667 26.8307 107.172 26.672 106.51 26.672C106.071 26.672 105.642 26.7467 105.222 26.896C104.802 27.036 104.447 27.2273 104.158 27.47L103.598 26.462C103.98 26.154 104.438 25.9207 104.97 25.762C105.511 25.594 106.076 25.51 106.664 25.51C107.681 25.51 108.465 25.7573 109.016 26.252C109.566 26.7467 109.842 27.5027 109.842 28.52V33H108.568ZM106.132 33.084C105.581 33.084 105.096 32.9907 104.676 32.804C104.265 32.6173 103.948 32.3607 103.724 32.034C103.5 31.698 103.388 31.32 103.388 30.9C103.388 30.4987 103.481 30.1347 103.668 29.808C103.864 29.4813 104.176 29.22 104.606 29.024C105.044 28.828 105.632 28.73 106.37 28.73H108.722V29.696H106.426C105.754 29.696 105.301 29.808 105.068 30.032C104.834 30.256 104.718 30.5267 104.718 30.844C104.718 31.208 104.862 31.502 105.152 31.726C105.441 31.9407 105.842 32.048 106.356 32.048C106.86 32.048 107.298 31.936 107.672 31.712C108.054 31.488 108.33 31.1613 108.498 30.732L108.764 31.656C108.586 32.0947 108.274 32.4447 107.826 32.706C107.378 32.958 106.813 33.084 106.132 33.084ZM112.329 33V25.58H113.617V27.596L113.491 27.092C113.696 26.5787 114.041 26.1867 114.527 25.916C115.012 25.6453 115.609 25.51 116.319 25.51V26.812C116.263 26.8027 116.207 26.798 116.151 26.798C116.104 26.798 116.057 26.798 116.011 26.798C115.292 26.798 114.723 27.0127 114.303 27.442C113.883 27.8713 113.673 28.492 113.673 29.304V33H112.329ZM120.824 33.084C120.077 33.084 119.499 32.8833 119.088 32.482C118.677 32.0807 118.472 31.5067 118.472 30.76V23.956H119.816V30.704C119.816 31.1053 119.914 31.4133 120.11 31.628C120.315 31.8427 120.605 31.95 120.978 31.95C121.398 31.95 121.748 31.8333 122.028 31.6L122.448 32.566C122.243 32.7433 121.995 32.874 121.706 32.958C121.426 33.042 121.132 33.084 120.824 33.084ZM117.212 26.686V25.58H121.944V26.686H117.212ZM126.201 33.084C125.585 33.084 124.997 33 124.437 32.832C123.886 32.664 123.452 32.4587 123.135 32.216L123.695 31.152C124.012 31.3667 124.404 31.5487 124.871 31.698C125.337 31.8473 125.813 31.922 126.299 31.922C126.924 31.922 127.372 31.8333 127.643 31.656C127.923 31.4787 128.063 31.2313 128.063 30.914C128.063 30.6807 127.979 30.4987 127.811 30.368C127.643 30.2373 127.419 30.1393 127.139 30.074C126.868 30.0087 126.565 29.9527 126.229 29.906C125.893 29.85 125.557 29.7847 125.221 29.71C124.885 29.626 124.577 29.514 124.297 29.374C124.017 29.2247 123.793 29.024 123.625 28.772C123.457 28.5107 123.373 28.1653 123.373 27.736C123.373 27.288 123.499 26.896 123.751 26.56C124.003 26.224 124.357 25.9673 124.815 25.79C125.281 25.6033 125.832 25.51 126.467 25.51C126.952 25.51 127.442 25.5707 127.937 25.692C128.441 25.804 128.851 25.9673 129.169 26.182L128.595 27.246C128.259 27.022 127.909 26.868 127.545 26.784C127.181 26.7 126.817 26.658 126.453 26.658C125.865 26.658 125.426 26.756 125.137 26.952C124.847 27.1387 124.703 27.3813 124.703 27.68C124.703 27.932 124.787 28.128 124.955 28.268C125.132 28.3987 125.356 28.5013 125.627 28.576C125.907 28.6507 126.215 28.716 126.551 28.772C126.887 28.8187 127.223 28.884 127.559 28.968C127.895 29.0427 128.198 29.15 128.469 29.29C128.749 29.43 128.973 29.626 129.141 29.878C129.318 30.13 129.407 30.466 129.407 30.886C129.407 31.334 129.276 31.7213 129.015 32.048C128.753 32.3747 128.385 32.6313 127.909 32.818C127.433 32.9953 126.863 33.084 126.201 33.084Z" fill="white"/>
<defs>
<clipPath id="clip0_1_2404">
<rect width="45" height="34" fill="white" transform="translate(0 1)"/>
</clipPath>
</defs>
</svg>
