<svg width="50" height="50" viewBox="0 0 50 50" fill="none" xmlns="http://www.w3.org/2000/svg">
<path d="M24.9998 4.16699C13.4998 4.16699 4.1665 13.5003 4.1665 25.0003C4.1665 36.5003 13.4998 45.8336 24.9998 45.8336C36.4998 45.8336 45.8332 36.5003 45.8332 25.0003C45.8332 13.5003 36.4998 4.16699 24.9998 4.16699ZM34.6665 18.3337C34.354 21.6253 32.9998 29.6253 32.3123 33.3128C32.0207 34.8753 31.4373 35.3961 30.8957 35.4586C29.6873 35.5628 28.7707 34.667 27.604 33.8961C25.7707 32.6878 24.729 31.9378 22.9582 30.7711C20.8957 29.417 22.229 28.667 23.4165 27.4587C23.729 27.1462 29.0623 22.292 29.1665 21.8545C29.181 21.7882 29.179 21.7194 29.1609 21.6541C29.1427 21.5887 29.1089 21.5288 29.0623 21.4795C28.9373 21.3753 28.7707 21.417 28.6248 21.4378C28.4373 21.4795 25.5207 23.417 19.8332 27.2503C18.9998 27.8128 18.2498 28.1045 17.5832 28.0836C16.8332 28.0628 15.4165 27.667 14.354 27.3128C13.0415 26.8961 12.0207 26.667 12.104 25.9378C12.1457 25.5628 12.6665 25.1878 13.6457 24.792C19.729 22.1462 23.7707 20.3962 25.7915 19.5628C31.5832 17.1462 32.7707 16.7295 33.5623 16.7295C33.729 16.7295 34.1248 16.7712 34.3748 16.9795C34.5832 17.1462 34.6457 17.3753 34.6665 17.542C34.6457 17.667 34.6873 18.042 34.6665 18.3337Z" fill="#EC3542"/>
</svg>
