<svg width="50" height="50" viewBox="0 0 50 50" fill="none" xmlns="http://www.w3.org/2000/svg">
<path d="M45.9533 14.4688C45.7043 13.5438 45.2168 12.7005 44.5395 12.0232C43.8622 11.3459 43.0189 10.8583 42.0939 10.6094C38.6877 9.6875 25.0002 9.6875 25.0002 9.6875C25.0002 9.6875 11.3127 9.6875 7.90645 10.6094C6.98151 10.8583 6.13819 11.3459 5.46088 12.0232C4.78357 12.7005 4.29604 13.5438 4.04707 14.4688C3.41105 17.9426 3.10241 21.4685 3.1252 25C3.10241 28.5315 3.41105 32.0574 4.04707 35.5313C4.29604 36.4562 4.78357 37.2995 5.46088 37.9768C6.13819 38.6541 6.98151 39.1417 7.90645 39.3906C11.3127 40.3125 25.0002 40.3125 25.0002 40.3125C25.0002 40.3125 38.6877 40.3125 42.0939 39.3906C43.0189 39.1417 43.8622 38.6541 44.5395 37.9768C45.2168 37.2995 45.7043 36.4562 45.9533 35.5313C46.5893 32.0574 46.898 28.5315 46.8752 25C46.898 21.4685 46.5893 17.9426 45.9533 14.4688ZM20.6252 31.5625V18.4375L31.9846 25L20.6252 31.5625Z" fill="#EC3542"/>
</svg>
