<svg width="120" height="120" viewBox="0 0 120 120" fill="none" xmlns="http://www.w3.org/2000/svg">
<circle cx="60" cy="60" r="60" fill="#EC3542"/>
<path d="M69.1668 48.3333L72.6668 51.8333L52.8335 71.6666L49.3335 68.1666L69.1668 48.3333ZM37.6668 36.6666H84.3335C87.571 36.6666 90.1668 39.2625 90.1668 42.5V54.1666C88.6197 54.1666 87.136 54.7812 86.042 55.8752C84.9481 56.9691 84.3335 58.4529 84.3335 60C84.3335 61.5471 84.9481 63.0308 86.042 64.1247C87.136 65.2187 88.6197 65.8333 90.1668 65.8333V77.5C90.1668 80.7375 87.571 83.3333 84.3335 83.3333H37.6668C36.1197 83.3333 34.636 82.7187 33.542 81.6247C32.4481 80.5308 31.8335 79.0471 31.8335 77.5V65.8333C35.071 65.8333 37.6668 63.2375 37.6668 60C37.6668 58.4529 37.0522 56.9691 35.9583 55.8752C34.8643 54.7812 33.3806 54.1666 31.8335 54.1666V42.5C31.8335 40.9529 32.4481 39.4691 33.542 38.3752C34.636 37.2812 36.1197 36.6666 37.6668 36.6666ZM37.6668 42.5V49.9083C39.4392 50.9303 40.9112 52.4011 41.9347 54.1726C42.9581 55.9442 43.4969 57.954 43.4969 60C43.4969 62.0459 42.9581 64.0558 41.9347 65.8273C40.9112 67.5989 39.4392 69.0696 37.6668 70.0916V77.5H84.3335V70.0916C82.5611 69.0696 81.0891 67.5989 80.0657 65.8273C79.0422 64.0558 78.5034 62.0459 78.5034 60C78.5034 57.954 79.0422 55.9442 80.0657 54.1726C81.0891 52.4011 82.5611 50.9303 84.3335 49.9083V42.5H37.6668ZM53.7085 48.3333C56.1293 48.3333 58.0835 50.2875 58.0835 52.7083C58.0835 55.1291 56.1293 57.0833 53.7085 57.0833C51.2877 57.0833 49.3335 55.1291 49.3335 52.7083C49.3335 50.2875 51.2877 48.3333 53.7085 48.3333ZM68.2918 62.9166C70.7127 62.9166 72.6668 64.8708 72.6668 67.2916C72.6668 69.7125 70.7127 71.6666 68.2918 71.6666C65.871 71.6666 63.9168 69.7125 63.9168 67.2916C63.9168 64.8708 65.871 62.9166 68.2918 62.9166Z" fill="white"/>
</svg>
