<svg width="120" height="120" viewBox="0 0 120 120" fill="none" xmlns="http://www.w3.org/2000/svg">
<circle cx="60" cy="60" r="60" fill="#EC3542"/>
<path d="M54.1668 60C60.6127 60 65.8335 54.7791 65.8335 48.3333C65.8335 41.8875 60.6127 36.6666 54.1668 36.6666C47.721 36.6666 42.5002 41.8875 42.5002 48.3333C42.5002 54.7791 47.721 60 54.1668 60ZM54.1668 42.5C57.3752 42.5 60.0002 45.125 60.0002 48.3333C60.0002 51.5416 57.3752 54.1666 54.1668 54.1666C50.9585 54.1666 48.3335 51.5416 48.3335 48.3333C48.3335 45.125 50.9585 42.5 54.1668 42.5ZM36.6668 77.5C37.3085 75.4 46.321 71.6666 54.1668 71.6666C54.1668 69.625 54.546 67.6708 55.1877 65.8625C47.2252 65.5708 30.8335 69.5375 30.8335 77.5V83.3333H58.6585C57.1418 81.6416 55.946 79.6875 55.1877 77.5H36.6668ZM81.671 77.5583C82.721 75.8375 83.3335 73.825 83.3335 71.6666C83.3335 65.2208 78.1127 60 71.6668 60C65.221 60 60.0002 65.2208 60.0002 71.6666C60.0002 78.1125 65.221 83.3333 71.6668 83.3333C73.8252 83.3333 75.8377 82.6916 77.5585 81.6708L85.0543 89.1666L89.1668 85.0541C84.7918 80.6791 86.8627 82.7208 81.671 77.5583ZM71.6668 77.5C68.4585 77.5 65.8335 74.875 65.8335 71.6666C65.8335 68.4583 68.4585 65.8333 71.6668 65.8333C74.8752 65.8333 77.5002 68.4583 77.5002 71.6666C77.5002 74.875 74.8752 77.5 71.6668 77.5Z" fill="white"/>
</svg>
