<svg width="120" height="120" viewBox="0 0 120 120" fill="none" xmlns="http://www.w3.org/2000/svg">
<circle cx="60" cy="60" r="60" fill="#EC3542"/>
<g clip-path="url(#clip0_1_228)">
<path d="M90.625 68.75C90.6294 66.5596 90.0855 64.4029 89.043 62.4764C88.0004 60.55 86.4922 58.9152 84.656 57.7209C82.8197 56.5266 80.7138 55.8109 78.5301 55.639C76.3464 55.4671 74.1544 55.8444 72.1539 56.7367C70.1534 57.6289 68.408 59.0076 67.0768 60.7472C65.7456 62.4867 64.8709 64.5318 64.5326 66.6959C64.1942 68.8601 64.4028 71.0745 65.1395 73.1374C65.8761 75.2003 67.1173 77.046 68.75 78.5063V95L77.5 90.8569L86.25 95V78.5063C87.6252 77.2799 88.7259 75.7769 89.4798 74.0956C90.2338 72.4143 90.624 70.5926 90.625 68.75ZM81.875 88.0875L77.5 86.016L73.125 88.0875V81.1094C75.9523 82.1305 79.0477 82.1305 81.875 81.1094V88.0875ZM77.5 77.5C75.7694 77.5 74.0777 76.9869 72.6387 76.0254C71.1998 75.0639 70.0783 73.6974 69.416 72.0985C68.7538 70.4997 68.5805 68.7403 68.9181 67.043C69.2557 65.3457 70.0891 63.7866 71.3128 62.5629C72.5365 61.3391 74.0956 60.5058 75.7929 60.1682C77.4903 59.8305 79.2496 60.0038 80.8485 60.6661C82.4473 61.3284 83.8139 62.4499 84.7753 63.8888C85.7368 65.3277 86.25 67.0195 86.25 68.75C86.2471 71.0698 85.3243 73.2937 83.684 74.934C82.0436 76.5743 79.8197 77.4971 77.5 77.5Z" fill="white"/>
<path d="M79.6875 35.9375H73.125V33.75C73.1215 32.5907 72.6595 31.48 71.8398 30.6602C71.02 29.8405 69.9093 29.3785 68.75 29.375H51.25C50.0907 29.3785 48.98 29.8405 48.1602 30.6602C47.3405 31.48 46.8785 32.5907 46.875 33.75V35.9375H40.3125C39.1532 35.941 38.0425 36.403 37.2227 37.2227C36.403 38.0425 35.941 39.1532 35.9375 40.3125V86.25C35.941 87.4093 36.403 88.52 37.2227 89.3398C38.0425 90.1595 39.1532 90.6215 40.3125 90.625H60V86.25H40.3125V40.3125H46.875V46.875H73.125V40.3125H79.6875V51.25H84.0625V40.3125C84.059 39.1532 83.597 38.0425 82.7773 37.2227C81.9575 36.403 80.8468 35.941 79.6875 35.9375ZM68.75 42.5H51.25V33.75H68.75V42.5Z" fill="white"/>
</g>
<defs>
<clipPath id="clip0_1_228">
<rect width="70" height="70" fill="white" transform="translate(25 25)"/>
</clipPath>
</defs>
</svg>
